<svg width="36" height="36" viewBox="0 0 36 36" fill="none" xmlns="http://www.w3.org/2000/svg">
<g id="Frame">
<g id="Group">
<path id="Vector" d="M32.4036 7.06108C32.3342 6.74833 32.2162 6.44843 32.0537 6.17233C32.0537 6.17233 28.151 0 17.9992 0C7.8505 0 3.94482 6.17233 3.94482 6.17233C3.80108 6.39885 3.6438 6.79844 3.59413 7.06108C3.59413 7.06108 2.83934 11.0638 4.08855 16.8012C5.23919 22.0758 8.41942 29.6365 17.0541 35.6997C17.3309 35.8948 17.6613 35.9996 18 35.9996C18.3387 35.9996 18.6691 35.8948 18.9459 35.6997C27.5776 29.6358 30.7593 22.0758 31.9092 16.8012C33.1622 11.0638 32.4036 7.06108 32.4036 7.06108ZM28.5822 16.0758C28.5499 16.227 28.51 16.385 28.4723 16.5401H17.9992V32.1741C11.2625 27.0613 8.57896 20.9793 7.5254 16.5401H17.9992V3.40524C25.2274 3.40524 28.446 7.04453 29.0842 7.87382C29.1895 8.6384 29.5176 11.79 28.5822 16.0758Z" fill="#6276AA"/>
</g>
</g>
</svg>
